# xmcd
#
# Track frame offsets: 
#        150
#        22260
#        39617
#        65517
#        85007
#        114490
#        136887
#        161750
#
# Disc length: 2759 seconds
#
# Revision: 0
# Processed by: cddbd v1.5.2PL0 Copyright (c) Steve Scherf et al.
# Submitted via: ExactAudioCopy v0.99pb4
#
DISCID=680ac508
DTITLE=Steve Apirana - No Turning Back
DYEAR=1996
DGENRE=Blues
TTITLE0=That Same Old Road
TTITLE1=Hear Me Knocking
TTITLE2=Postscript
TTITLE3=No Turning Back
TTITLE4=Song For The Bride
TTITLE5=I Choose The Follow
TTITLE6=E Te Ariki
TTITLE7=It's No Miracle
EXTD=
EXTT0=
EXTT1=
EXTT2=
EXTT3=
EXTT4=
EXTT5=
EXTT6=
EXTT7=
PLAYORDER=
